<svg xmlns="http://www.w3.org/2000/svg" fill="none" viewBox="0 0 110 29"><path fill="#A100FF" d="m64.021 8.093 6.328-2.36-6.328-2.428V0l10.838 4.384V7.08l-10.838 4.384z"/><path fill="#000" d="M4.174 29C1.884 29 0 27.854 0 25.29v-.134c0-3.102 2.693-4.181 5.991-4.181H7.54v-.608c0-1.28-.539-2.023-1.885-2.023-1.212 0-1.818.675-1.885 1.619H.404c.27-2.833 2.49-4.182 5.453-4.182 3.03 0 5.25 1.282 5.25 4.452v8.497H7.675v-1.483C7.001 28.19 5.857 29 4.174 29m3.366-4.45v-1.214H6.126c-1.75 0-2.625.472-2.625 1.618v.135c0 .877.538 1.484 1.75 1.484 1.212-.067 2.289-.742 2.289-2.023M19.119 29c-3.5 0-6.059-2.158-6.059-6.474v-.203c0-4.316 2.693-6.609 6.059-6.609 2.895 0 5.25 1.484 5.52 4.788h-3.366c-.202-1.214-.875-2.023-2.087-2.023-1.481 0-2.558 1.214-2.558 3.71v.404c0 2.563.942 3.71 2.558 3.71 1.212 0 2.087-.877 2.289-2.294h3.231C24.504 26.977 22.552 29 19.12 29m13.194 0c-3.5 0-6.058-2.158-6.058-6.474v-.203c0-4.316 2.692-6.609 6.058-6.609 2.895 0 5.251 1.484 5.52 4.788h-3.365c-.202-1.214-.876-2.023-2.087-2.023-1.481 0-2.558 1.214-2.558 3.71v.404c0 2.563.942 3.71 2.558 3.71 1.211 0 2.087-.877 2.288-2.294h3.232C37.699 26.977 35.747 29 32.313 29m13.262 0c-3.635 0-6.126-2.158-6.126-6.407v-.27c0-4.248 2.626-6.609 6.059-6.609 3.164 0 5.79 1.754 5.79 6.002v1.551h-8.28c.134 2.294 1.144 3.17 2.625 3.17 1.346 0 2.087-.742 2.356-1.618h3.298C50.894 27.179 48.874 29 45.575 29m-2.49-8.093h4.712c-.067-1.888-.943-2.698-2.356-2.698-1.078.068-2.087.675-2.357 2.698m10.367-4.856h3.568v1.889c.605-1.214 1.884-2.159 3.837-2.159 2.289 0 3.837 1.417 3.837 4.452v8.497h-3.568v-7.958c0-1.484-.606-2.158-1.885-2.158-1.212 0-2.221.742-2.221 2.36v7.756h-3.568zm17.772-3.844v3.844h2.423v2.63h-2.423v6.003c0 .944.404 1.416 1.28 1.416.538 0 .874-.067 1.21-.202v2.765c-.403.135-1.144.27-2.019.27-2.76 0-4.039-1.282-4.039-3.845v-6.407h-1.481v-2.63h1.481v-2.36zM86.977 28.73h-3.5v-1.888C82.87 28.056 81.657 29 79.773 29c-2.29 0-3.972-1.416-3.972-4.384v-8.565h3.568v8.093c0 1.484.605 2.158 1.817 2.158s2.222-.809 2.222-2.36v-7.89h3.568zm2.625-12.679h3.568v2.36c.74-1.685 1.952-2.495 3.837-2.495v3.507c-2.423 0-3.837.742-3.837 2.833v6.542h-3.568zm14.609 12.95c-3.636 0-6.126-2.16-6.126-6.408v-.27c0-4.248 2.625-6.609 6.058-6.609 3.164 0 5.79 1.754 5.79 6.002v1.551h-8.213c.134 2.294 1.144 3.17 2.625 3.17 1.347 0 2.087-.742 2.356-1.618H110c-.539 2.36-2.491 4.181-5.789 4.181m-2.559-8.094h4.78c-.067-1.888-.942-2.698-2.356-2.698-1.077.068-2.087.675-2.424 2.698"/></svg>