<svg xmlns="http://www.w3.org/2000/svg" fill="none" viewBox="0 0 48 48"><g clip-path="url(#gemini-a)"><mask id="gemini-c" width="48" height="48" x="0" y="0" maskUnits="userSpaceOnUse" style="mask-type:alpha"><path fill="#000" d="M23.96 0c.503 0 .94.343 1.063.83.375 1.491.869 2.95 1.477 4.361q2.385 5.54 6.538 9.693 4.154 4.154 9.692 6.539a29 29 0 0 0 4.362 1.476 1.096 1.096 0 0 1-.001 2.124 29 29 0 0 0-4.36 1.477q-5.54 2.385-9.693 6.538-4.154 4.154-6.538 9.692a29 29 0 0 0-1.477 4.362 1.1 1.1 0 0 1-1.062.83c-.502 0-.94-.343-1.062-.831a29 29 0 0 0-1.477-4.36q-2.383-5.54-6.538-9.693Q10.73 28.884 5.19 26.5a29 29 0 0 0-4.36-1.477A1.1 1.1 0 0 1 0 23.962c0-.503.343-.94.83-1.062a29 29 0 0 0 4.361-1.477q5.54-2.384 9.693-6.539 4.154-4.153 6.539-9.692a29 29 0 0 0 1.476-4.36A1.096 1.096 0 0 1 23.961 0"/><path fill="url(#gemini-b)" d="M23.96 0c.503 0 .94.343 1.063.83.375 1.491.869 2.95 1.477 4.361q2.385 5.54 6.538 9.693 4.154 4.154 9.692 6.539a29 29 0 0 0 4.362 1.476 1.096 1.096 0 0 1-.001 2.124 29 29 0 0 0-4.36 1.477q-5.54 2.385-9.693 6.538-4.154 4.154-6.538 9.692a29 29 0 0 0-1.477 4.362 1.1 1.1 0 0 1-1.062.83c-.502 0-.94-.343-1.062-.831a29 29 0 0 0-1.477-4.36q-2.383-5.54-6.538-9.693Q10.73 28.884 5.19 26.5a29 29 0 0 0-4.36-1.477A1.1 1.1 0 0 1 0 23.962c0-.503.343-.94.83-1.062a29 29 0 0 0 4.361-1.477q5.54-2.384 9.693-6.539 4.154-4.153 6.539-9.692a29 29 0 0 0 1.476-4.36A1.096 1.096 0 0 1 23.961 0"/></mask><g mask="url(#gemini-c)"><g filter="url(#gemini-d)"><path fill="#ffe432" d="M-4.328 37.465c5.537 1.967 11.901-1.72 14.215-8.235s-.3-13.39-5.837-15.356-11.901 1.72-14.215 8.235.3 13.39 5.837 15.356"/></g><g filter="url(#gemini-e)"><path fill="#fc413d" d="M20.257 15.987c7.606 0 13.773-6.303 13.773-14.077s-6.166-14.076-13.773-14.076S6.482-5.863 6.482 1.91s6.167 14.077 13.775 14.077"/></g><g filter="url(#gemini-f)"><path fill="#00b95c" d="M14.906 61.003c7.94-.388 13.97-9.042 13.467-19.329-.502-10.286-7.348-18.311-15.288-17.923S-.886 32.793-.383 43.08C.12 53.366 6.965 61.39 14.906 61.003"/></g><g filter="url(#gemini-g)"><path fill="#00b95c" d="M14.906 61.003c7.94-.388 13.97-9.042 13.467-19.329-.502-10.286-7.348-18.311-15.288-17.923S-.886 32.793-.383 43.08C.12 53.366 6.965 61.39 14.906 61.003"/></g><g filter="url(#gemini-h)"><path fill="#00b95c" d="M22.857 54.78c6.657-4.05 8.439-13.275 3.98-20.603-4.46-7.33-13.47-9.987-20.128-5.937S-1.73 41.515 2.73 48.844c4.46 7.329 13.47 9.986 20.128 5.936"/></g><g filter="url(#gemini-i)"><path fill="#3186ff" d="M49.765 31.749c7.482 0 13.547-5.841 13.547-13.046S57.247 5.657 49.765 5.657s-13.548 5.841-13.548 13.046S42.283 31.75 49.765 31.75"/></g><g filter="url(#gemini-j)"><path fill="#fbbc04" d="M-9.649 30.236c6.89 5.238 16.955 3.595 22.48-3.672 5.527-7.267 4.422-17.405-2.468-22.644S-6.591.324-12.117 7.591s-4.42 17.406 2.468 22.645"/></g><g filter="url(#gemini-k)"><path fill="#3186ff" d="M25.654 37.98c8.223 5.653 19.123 4.078 24.345-3.519 5.223-7.596 2.791-18.337-5.433-23.991-8.223-5.655-19.123-4.08-24.346 3.516-5.222 7.598-2.79 18.339 5.433 23.993"/></g><g filter="url(#gemini-l)"><path fill="#749bff" d="M40.601-1.725c2.092 2.845-.596 8.374-6.004 12.352s-11.488 4.897-13.58 2.053.596-8.375 6.003-12.353C32.43-3.65 38.51-4.569 40.6-1.726z"/></g><g filter="url(#gemini-m)"><path fill="#fc413d" d="M23.427 11.892c8.364-7.758 11.234-18.262 6.412-23.46-4.822-5.2-15.512-3.126-23.876 4.632C-2.4.823-5.272 11.327-.449 16.525c4.822 5.2 15.512 3.126 23.876-4.633"/></g><g filter="url(#gemini-n)"><path fill="#ffee48" d="M6.283 39.757c4.971 3.558 10.678 4.099 12.747 1.208 2.07-2.89-.284-8.118-5.255-11.676C8.805 25.73 3.097 25.19 1.03 28.08c-2.07 2.89.282 8.118 5.254 11.676"/></g></g></g><defs><filter id="gemini-d" width="31.578" height="34.489" x="-15.928" y="8.425" color-interpolation-filters="sRGB" filterUnits="userSpaceOnUse"><feFlood flood-opacity="0" result="BackgroundImageFix"/><feBlend in="SourceGraphic" in2="BackgroundImageFix" result="shape"/><feGaussianBlur result="effect1_foregroundBlur_16539_73494" stdDeviation="2.46"/></filter><filter id="gemini-e" width="75.111" height="75.717" x="-17.3" y="-35.948" color-interpolation-filters="sRGB" filterUnits="userSpaceOnUse"><feFlood flood-opacity="0" result="BackgroundImageFix"/><feBlend in="SourceGraphic" in2="BackgroundImageFix" result="shape"/><feGaussianBlur result="effect1_foregroundBlur_16539_73494" stdDeviation="11.891"/></filter><filter id="gemini-f" width="69.251" height="77.715" x="-20.63" y="3.52" color-interpolation-filters="sRGB" filterUnits="userSpaceOnUse"><feFlood flood-opacity="0" result="BackgroundImageFix"/><feBlend in="SourceGraphic" in2="BackgroundImageFix" result="shape"/><feGaussianBlur result="effect1_foregroundBlur_16539_73494" stdDeviation="10.109"/></filter><filter id="gemini-g" width="69.251" height="77.715" x="-20.63" y="3.52" color-interpolation-filters="sRGB" filterUnits="userSpaceOnUse"><feFlood flood-opacity="0" result="BackgroundImageFix"/><feBlend in="SourceGraphic" in2="BackgroundImageFix" result="shape"/><feGaussianBlur result="effect1_foregroundBlur_16539_73494" stdDeviation="10.109"/></filter><filter id="gemini-h" width="69.456" height="70.765" x="-19.945" y="6.127" color-interpolation-filters="sRGB" filterUnits="userSpaceOnUse"><feFlood flood-opacity="0" result="BackgroundImageFix"/><feBlend in="SourceGraphic" in2="BackgroundImageFix" result="shape"/><feGaussianBlur result="effect1_foregroundBlur_16539_73494" stdDeviation="10.109"/></filter><filter id="gemini-i" width="65.52" height="64.516" x="17.005" y="-13.555" color-interpolation-filters="sRGB" filterUnits="userSpaceOnUse"><feFlood flood-opacity="0" result="BackgroundImageFix"/><feBlend in="SourceGraphic" in2="BackgroundImageFix" result="shape"/><feGaussianBlur result="effect1_foregroundBlur_16539_73494" stdDeviation="9.606"/></filter><filter id="gemini-j" width="66.808" height="67.268" x="-33.047" y="-16.556" color-interpolation-filters="sRGB" filterUnits="userSpaceOnUse"><feFlood flood-opacity="0" result="BackgroundImageFix"/><feBlend in="SourceGraphic" in2="BackgroundImageFix" result="shape"/><feGaussianBlur result="effect1_foregroundBlur_16539_73494" stdDeviation="8.706"/></filter><filter id="gemini-k" width="66.383" height="65.395" x="1.919" y="-8.473" color-interpolation-filters="sRGB" filterUnits="userSpaceOnUse"><feFlood flood-opacity="0" result="BackgroundImageFix"/><feBlend in="SourceGraphic" in2="BackgroundImageFix" result="shape"/><feGaussianBlur result="effect1_foregroundBlur_16539_73494" stdDeviation="7.775"/></filter><filter id="gemini-l" width="48.832" height="45.538" x="6.393" y="-17.292" color-interpolation-filters="sRGB" filterUnits="userSpaceOnUse"><feFlood flood-opacity="0" result="BackgroundImageFix"/><feBlend in="SourceGraphic" in2="BackgroundImageFix" result="shape"/><feGaussianBlur result="effect1_foregroundBlur_16539_73494" stdDeviation="6.957"/></filter><filter id="gemini-m" width="58.473" height="57.327" x="-14.541" y="-26.185" color-interpolation-filters="sRGB" filterUnits="userSpaceOnUse"><feFlood flood-opacity="0" result="BackgroundImageFix"/><feBlend in="SourceGraphic" in2="BackgroundImageFix" result="shape"/><feGaussianBlur result="effect1_foregroundBlur_16539_73494" stdDeviation="5.876"/></filter><filter id="gemini-n" width="48.596" height="45.693" x="-14.269" y="11.676" color-interpolation-filters="sRGB" filterUnits="userSpaceOnUse"><feFlood flood-opacity="0" result="BackgroundImageFix"/><feBlend in="SourceGraphic" in2="BackgroundImageFix" result="shape"/><feGaussianBlur result="effect1_foregroundBlur_16539_73494" stdDeviation="7.273"/></filter><linearGradient id="gemini-b" x1="13.622" x2="38.513" y1="32.064" y2="11.08" gradientUnits="userSpaceOnUse"><stop stop-color="#4893fc"/><stop offset=".27" stop-color="#4893fc"/><stop offset=".777" stop-color="#969dff"/><stop offset="1" stop-color="#bd99fe"/></linearGradient><clipPath id="gemini-a"><path fill="#fff" d="M0 0h48v48H0z"/></clipPath></defs></svg>