<svg xmlns="http://www.w3.org/2000/svg" fill="none" viewBox="0 0 133 19"><path fill="#000" d="M124.397 17.374c-.371 0-.762-.103-1.215-.31l-.535 1.524c.618.309 1.215.412 1.873.412 1.688 0 2.635-.844 3.314-2.758l4.487-12.392h-1.976l-2.943 8.521-3.005-8.521h-2.079l4.075 11.012-.288.762c-.473 1.235-.823 1.75-1.708 1.75m-7.142-12.228c1.379 0 2.387.947 2.552 3.15h-5.228c.226-2.223 1.276-3.15 2.676-3.15m4.343 7.246-1.482-.864c-.68 1.235-1.565 1.811-2.738 1.811-1.564 0-2.717-1.07-2.84-3.602h7.183v-.7c0-3.52-1.79-5.393-4.446-5.393-2.778 0-4.713 1.955-4.713 5.599 0 3.705 1.935 5.578 4.775 5.578 2.079 0 3.314-.865 4.261-2.429m-10.641.68c-.7 0-1.009-.289-1.009-1.01V.187h-1.976V12.31c0 1.482.803 2.346 2.552 2.346.371 0 .762-.04 1.132-.144V13.01a4 4 0 0 1-.699.061m-13.893 1.523h1.996v-8.07c.844-.905 1.75-1.358 2.697-1.358.967 0 1.667.597 1.667 1.77v7.658h1.996V7.019c0-2.223-1.234-3.396-3.149-3.396-1.132 0-2.222.391-3.21 1.338V3.85h-1.997zm-9.097-2.8c0-1.008.576-1.729 2.428-2.203l1.935-.473v3.108c-.803.68-1.708 1.153-2.635 1.153-1.172 0-1.728-.74-1.728-1.585m1.379 3.006c1.07 0 2.202-.536 3.108-1.297.288.782.967 1.152 2.058 1.152.267 0 .535-.061.782-.123v-1.42c-.123.02-.247.02-.37.02-.453 0-.66-.206-.66-.659V7.04c0-2.058-1.316-3.417-3.704-3.417-1.811 0-3.458.865-4.549 2.223l1.256 1.07c.947-1.111 2.038-1.708 3.067-1.708 1.585 0 1.996.906 1.996 1.976v.474l-2.14.493c-3.129.721-4.178 2.039-4.178 3.706 0 1.544 1.05 2.944 3.334 2.944m-5.393-1.668c-.823 0-1.193-.33-1.193-1.09v-6.67h2.017V3.85H82.76V.885h-1.976V3.85h-1.77v1.523h1.77v6.978c0 1.502.843 2.305 2.758 2.305.39 0 .782-.061 1.235-.144v-1.42c-.33.041-.494.041-.824.041M73.436 14.78c2.676 0 4.92-1.462 4.92-4.035 0-2.594-1.75-3.417-4.755-4.405-1.811-.597-3.211-1.09-3.211-2.511 0-1.503 1.173-2.141 2.614-2.141 1.523 0 2.758.865 3.417 2.285l1.625-.844C77.08.988 75.144 0 73.004 0c-2.532 0-4.652 1.441-4.652 3.973 0 2.388 1.73 3.335 4.467 4.2 1.975.617 3.478 1.131 3.478 2.717 0 1.543-1.317 2.202-2.86 2.202-1.75 0-3.17-.844-3.911-2.347l-1.606.947c1.009 1.997 3.087 3.088 5.516 3.088m-18.832-.185H56.6v-8.07c.844-.905 1.75-1.358 2.697-1.358.967 0 1.667.597 1.667 1.77v7.658h1.996V7.019c0-2.223-1.235-3.396-3.149-3.396-1.132 0-2.223.391-3.21 1.338V3.85h-1.997zm-9.098-2.8c0-1.008.577-1.729 2.43-2.203l1.934-.473v3.108c-.803.68-1.708 1.153-2.634 1.153-1.174 0-1.73-.74-1.73-1.585m1.38 3.006c1.07 0 2.202-.536 3.108-1.297.288.782.967 1.152 2.058 1.152.267 0 .535-.061.782-.123v-1.42c-.124.02-.247.02-.37.02-.453 0-.66-.206-.66-.659V7.04c0-2.058-1.317-3.417-3.704-3.417-1.811 0-3.458.865-4.549 2.223l1.256 1.07c.946-1.111 2.037-1.708 3.066-1.708 1.585 0 1.997.906 1.997 1.976v.474l-2.14.493c-3.129.721-4.179 2.039-4.179 3.706 0 1.544 1.05 2.944 3.335 2.944M34.454 9.243c0-2.965 1.235-4.076 2.676-4.076 1.008 0 1.667.37 2.531 1.132v5.887c-.864.741-1.543 1.091-2.531 1.112-1.441 0-2.676-1.112-2.676-4.055m2.388 5.537c1.173 0 2.017-.453 2.82-1.132v.782c0 1.832-.639 2.944-2.718 2.944-1.173 0-2.202-.433-3.087-1.01l-.803 1.545c.844.556 2.45 1.09 3.993 1.09 2.84 0 4.631-1.625 4.631-4.28V3.848h-1.955v.886c-.803-.66-1.647-1.091-2.84-1.091-2.326 0-4.405 1.585-4.405 5.578 0 4.014 2.079 5.558 4.364 5.558m-10.23-.185h1.976V7.349c1.009-1.565 1.935-1.997 2.882-1.997.247 0 .473.02.638.083V3.602a2.4 2.4 0 0 0-.638-.082c-.988 0-2.12.72-2.882 2.058V3.85h-1.976zm-9.55-5.352c0-2.82 1.153-4.097 2.758-4.097 1.626 0 2.758 1.277 2.758 4.097s-1.132 4.075-2.758 4.075c-1.605 0-2.758-1.255-2.758-4.075m2.758-5.6c-2.86 0-4.734 1.997-4.734 5.6s1.874 5.578 4.734 5.578c2.861 0 4.734-1.976 4.734-5.578s-1.873-5.6-4.734-5.6M0 14.596h1.893L1.873 1.79 5.68 14.595h1.482L10.97 1.832v12.763h2.017V.185H9.653l-3.17 10.787L3.334.186H0z"/></svg>