<svg viewBox="0 0 48 48" xmlns="http://www.w3.org/2000/svg" fill="none"><path fill="#FF004F" d="M34.48 17.327a18.85 18.85 0 0 0 10.996 3.517v-7.887c-.776 0-1.55-.08-2.31-.241v6.208c-4.1 0-7.896-1.303-10.996-3.517v16.095c0 8.051-6.53 14.578-14.586 14.578a14.52 14.52 0 0 1-8.12-2.466A14.553 14.553 0 0 0 19.895 48c8.055 0 14.586-6.527 14.586-14.578V17.327zm2.848-7.957a10.992 10.992 0 0 1-2.849-6.436V1.92h-2.188c.55 3.14 2.43 5.824 5.037 7.45zM14.56 37.436a6.67 6.67 0 0 1 7.335-10.393V18.98a14.595 14.595 0 0 0-2.308-.133v6.276a6.67 6.67 0 0 0-8.697 6.356 6.669 6.669 0 0 0 3.67 5.957z"/><path fill="#000" d="M32.17 15.407a18.858 18.858 0 0 0 10.997 3.517v-6.208a11.043 11.043 0 0 1-5.838-3.346 11.042 11.042 0 0 1-5.038-7.45h-5.748v31.5a6.67 6.67 0 0 1-6.672 6.646 6.663 6.663 0 0 1-5.311-2.631 6.669 6.669 0 0 1 3.002-12.626c.706 0 1.386.11 2.024.313v-6.276c-7.913.163-14.278 6.626-14.278 14.574 0 3.968 1.585 7.565 4.158 10.193a14.516 14.516 0 0 0 8.12 2.466c8.055 0 14.585-6.527 14.585-14.578V15.407z"/><path fill="#00F2EA" d="M43.168 12.716v-1.679A11.002 11.002 0 0 1 37.33 9.37a11.027 11.027 0 0 0 5.838 3.346zM32.292 1.92c-.052-.3-.093-.602-.12-.906V0h-7.938v31.502a6.67 6.67 0 0 1-6.672 6.645 6.65 6.65 0 0 1-3.002-.711 6.666 6.666 0 0 0 5.312 2.631 6.67 6.67 0 0 0 6.672-6.646V1.92h5.748zM19.587 18.847V17.06a14.867 14.867 0 0 0-2-.136C9.53 16.924 3 23.451 3 31.502c0 5.047 2.566 9.495 6.466 12.112a14.525 14.525 0 0 1-4.157-10.193c0-7.948 6.365-14.41 14.278-14.574z"/></svg>